<svg xmlns="http://www.w3.org/2000/svg" version="1.1" xmlns:xlink="http://www.w3.org/1999/xlink" width="1059.19" height="1059.19"><svg xmlns="http://www.w3.org/2000/svg" xmlns:xlink="http://www.w3.org/1999/xlink" xmlns:serif="http://www.serif.com/" version="1.1" xml:space="preserve" style="fill-rule:evenodd;clip-rule:evenodd;stroke-linejoin:round;stroke-miterlimit:2;" viewBox="10.41 10.41 1059.19 1059.19">
    <g transform="matrix(0.980728,0,0,0.980728,10.4068,10.4068)">
        <circle cx="540" cy="540" r="540"></circle>
    </g>
    <g transform="matrix(2.58896,0,0,2.58896,6.92234,-1515.54)">
        <path d="M73.32,930.21C71.87,925.906 72.741,916.643 75.256,916.658C82.758,916.7 90.429,914.261 92.667,908.211C104.082,877.359 142.044,745.526 151.715,711.792L143.462,711.792C140.472,711.792 137.731,710.124 136.357,707.468C134.983,704.811 135.205,701.611 136.933,699.17L199.595,610.646C201.095,608.527 203.529,607.268 206.125,607.268C208.72,607.268 211.155,608.527 212.654,610.646L275.317,699.17C277.045,701.611 277.267,704.811 275.893,707.468C274.518,710.124 271.778,711.792 268.787,711.792L261.071,711.792C271.956,745.103 317.781,903.406 319.054,905.474C326.256,917.184 332.309,915.247 335.813,915.84C340.629,916.655 339.561,925.79 337.131,929.945C310.078,925.574 277.327,922.526 241.427,921.304C241.531,919.185 242.216,917.183 243.542,916.28C247.086,913.867 255.783,915.479 253.95,904.456C252.253,894.255 234.102,844.999 234.102,844.999L177.663,845.185C177.663,845.185 160.86,894.269 157.912,905.003C156.42,910.431 163.718,913.934 169.341,915.814C170.673,916.259 171.308,918.688 171.249,921.284C134.391,922.516 100.832,925.672 73.32,930.21ZM254.324,682.733C250.924,682.678 245.868,681.826 242.355,681.872C241.753,681.88 241.027,685.533 242.321,685.586C247.043,685.779 252.18,686.409 257.177,686.91C260.656,687.258 255.624,682.753 254.324,682.733ZM225.192,757.595C223.754,748.254 215.672,741.091 205.931,741.091C196.19,741.091 188.109,748.254 186.671,757.595L186.637,757.669L176.637,804.131C176.637,806.573 178.62,808.556 181.062,808.556C197.674,807.752 214.253,807.775 230.801,808.556C233.243,808.556 235.226,806.573 235.226,804.131L225.226,757.669L225.192,757.595ZM266.141,768.45C261.509,767.473 260.129,767.096 255.348,767.403C253.384,767.53 252.556,775.669 255.663,775.337C260.407,774.83 263.86,775.87 268.815,776.39C270.583,776.575 268.544,768.957 266.141,768.45ZM158.545,767.773C154.925,767.325 146.237,768.927 143.015,769.234C141.585,769.37 138.458,777.433 140.697,777.012C142.314,776.707 151.922,774.964 158.715,774.833C160.011,774.808 159.835,767.933 158.545,767.773ZM187.926,711.115C184.548,710.784 167.592,712.256 164.096,712.271C162.661,712.278 160.073,717.9 162.321,717.528C164.616,717.149 181.72,715.532 186.716,715.944C189.667,716.188 189.973,711.316 187.926,711.115ZM295.523,859.778C292.789,859.614 285.276,858.139 282.493,858.156C281.35,858.163 280.403,864.541 282.217,864.512C284.949,864.468 295.164,866.544 298.071,866.432C299.102,866.392 296.556,859.84 295.523,859.778ZM259.081,732.514C256.04,731.855 252.139,731.884 248.177,731.756C246.21,731.693 245.275,737.464 248.399,737.438C253.104,737.398 254.266,738.422 259.272,738.082C261.046,737.962 260.691,732.863 259.081,732.514ZM229.495,679.777C226.06,679.146 192.545,678.816 189.102,679.462C186.611,679.929 185.29,684.694 187.567,684.611C204.568,683.991 211.933,684.116 229.485,685.045C230.78,685.113 230.773,680.012 229.495,679.777ZM273.17,857.172C270.332,856.631 257.557,854.994 253.072,855.503C251.573,855.674 250.187,863.966 252.58,863.937C256.185,863.893 269.388,864.687 273.365,865.019C274.722,865.133 274.511,857.428 273.17,857.172ZM163.521,855.749C160.102,854.895 146.543,856.03 142.89,856.807C141.674,857.066 140.962,864.836 142.213,864.762C145.186,864.585 159.003,863.328 162.946,863.495C164.263,863.551 164.81,856.071 163.521,855.749ZM156.856,797.495C153.456,796.88 136.247,799.451 132.707,800.224C131.304,800.53 130.582,807.128 132.86,807.102C136.292,807.062 155.163,805.078 158.814,804.976C160.11,804.94 158.135,797.727 156.856,797.495ZM164.629,736.882C157.754,737.301 156.708,737.398 152.693,738.332C151.295,738.657 149.174,744.296 152.137,744.281C154.193,744.271 161.143,743.523 164.794,743.421C166.09,743.385 165.926,736.803 164.629,736.882ZM233.508,653.004C231.102,652.922 224.566,652.608 222.118,652.617C221.112,652.62 220.466,655.96 222.056,655.836C224.514,655.645 233.523,656.226 236.001,656.415C236.906,656.485 234.416,653.035 233.508,653.004ZM134.063,858.023C130.939,857.351 118.643,859.37 114.995,860.192C113.735,860.475 112.484,866.027 113.785,866.115C116.881,866.325 129.412,864.476 133.175,864.376C134.443,864.343 135.315,858.292 134.063,858.023ZM304.297,889.06C299.256,888.049 279.32,885.26 274.023,886.23C273.003,886.416 272.468,894.41 274.627,894.284C277.111,894.139 297.764,896.773 305.628,898.234C308.666,898.798 306.281,889.459 304.297,889.06ZM244.655,823.169C244.213,821.821 239.995,819.769 238.581,819.769C214.351,817.53 193.826,818.35 169.978,820.607C168.564,820.607 167.416,821.755 167.416,823.169L167.416,824.814C167.416,826.228 171.036,827.252 172.45,827.252C196.088,824.139 217.644,824.226 242.093,827.377C243.507,827.377 244.655,826.228 244.655,824.814L244.655,823.169ZM143.553,885.115C137.937,884.747 114.683,887.653 108.296,889.062C106.026,889.563 103.812,898.171 106.123,897.919C112.387,897.236 135.698,893.375 142.167,893.982C144.439,894.195 145.831,885.264 143.553,885.115ZM287.536,829.98C282.853,829.363 265.215,827.244 260.393,827.888C258.442,828.148 257.005,834.295 260.091,833.808C264.698,833.08 282.383,835.877 287.499,836.547C289.262,836.778 289.303,830.213 287.536,829.98ZM177.913,680.261C174.408,679.929 162.744,680.997 159.132,681.787C157.729,682.094 153.868,687.085 156.13,686.817C162.859,686.017 170.172,685.418 177.919,685.202C179.216,685.166 179.207,680.383 177.913,680.261ZM194.246,659.483C190.783,659.08 181.938,659.734 178.519,659.956C177.086,660.049 177.388,665.27 179.154,665.206C182.583,665.082 190.641,664.672 194.292,664.571C195.588,664.535 195.537,659.633 194.246,659.483ZM211.2,635.03C207.823,634.632 199.288,634.73 195.785,634.887C194.351,634.951 190.922,641.952 193.194,641.791C198.723,641.397 210.113,641.361 211.485,641.515C212.774,641.661 212.491,635.182 211.2,635.03ZM279.156,800.152C274.415,799.432 257.128,797.105 252.355,797.495C250.393,797.655 248.904,805.497 251.998,805.069C256.754,804.41 274.31,806.921 279.251,807.613C281.012,807.859 280.918,800.419 279.156,800.152ZM152.973,828.247C148.163,827.367 130.482,829.602 125.79,830.511C123.857,830.885 122.627,836.623 125.735,836.311C130.32,835.85 147.7,833.589 152.841,833.958C154.615,834.085 154.727,828.567 152.973,828.247Z" style="fill:white;"></path>
    </g>
</svg><style>@media (prefers-color-scheme: light) { :root { filter: none; } }
@media (prefers-color-scheme: dark) { :root { filter: none; } }
</style></svg>